{"title":"Snow.Flower.and.the.Secret.Fan.LIMITED.BluRay.720p.x264.DTS-DOC","uid":6794030,"size":4694712237,"categoryP":"video","categoryS":"hd___movies","magnet":"?xt=urn:btih:a3a026096d5d6ef0cbc10d5ea5d90f8d495dbab4&amp;dn=Snow.Flower.and.the.Secret.Fan.LIMITED.BluRay.720p.x264.DTS-DOC&amp;tr=udp%3A%2F%2Ftracker.openbittorrent.com%3A80&amp;tr=udp%3A%2F%2Fopen.demonii.com%3A1337&amp;tr=udp%3A%2F%2Ftracker.coppersurfer.tk%3A6969&amp;tr=udp%3A%2F%2Fexodus.desync.com%3A6969","seeders":0,"leechers":2,"uploader":"FatFreddy255","files":1,"time":1320379523,"description":"A story set in 19th century China and centered on the lifelong friendship between two girls who develop their own secret code as a way to contend with the rigid cultural norms imposed on women.\nDirected by Wayne Wang. Stars: Bingbing Li, Gianna Jun, Vivian Wu. \n\nATTENTION: NO SUBTITLES EMBEDDED\n\nSnow.Flower.and.the.Secret.Fan.LIMITED.BluRay.720p.x264.DTS-DOC.mkv\nFormat                                   : Matroska\nFormat version                           : Version 2\nFile size                                : 4.37 GiB\nDuration                                 : 1h 44mn\nOverall bit rate                         : 6 003 Kbps\nEncoded date                             : UTC 2011-11-04 02:18:51\nWriting application                      : mkvmerge v4.8.0 ('I Got The...') built on May 24 2011 03:12:58\nWriting library                          : libebml v1.2.0 + libmatroska v1.1.0\n\nVideo\nID                                       : 1\nFormat                                   : AVC\nFormat/Info                              : Advanced Video Codec\nFormat profile                           : &lt;a class=&quot;__cf_email__&quot; href=&quot;/cdn-cgi/l/email-protection&quot; data-cfemail=&quot;fab2939d92bab6ced4cb&quot;&gt;[email&amp;#160;protected]&lt;/a&gt;&lt;script cf-hash='f9e31' type=&quot;text/javascript&quot;&gt;\n/* &lt;![CDATA[ */!function(){try{var t=&quot;currentScript&quot;in document?document.currentScript:function(){for(var t=document.getElementsByTagName(&quot;script&quot;),e=t.length;e--;)if(t[e].getAttribute(&quot;cf-hash&quot;))return t[e]}();if(t&amp;&amp;t.previousSibling){var e,r,n,i,c=t.previousSibling,a=c.getAttribute(&quot;data-cfemail&quot;);if(a){for(e=&quot;&quot;,r=parseInt(a.substr(0,2),16),n=2;a.length-n;n+=2)i=parseInt(a.substr(n,2),16)^r,e+=String.fromCharCode(i);e=document.createTextNode(e),c.parentNode.replaceChild(e,c)}}}catch(u){}}();/* ]]&gt; */&lt;/script&gt;\nFormat settings, CABAC                   : Yes\nFormat settings, ReFrames                : 5 frames\nMuxing mode                              : Header stripping\nCodec ID                                 : V_MPEG4/ISO/AVC\nDuration                                 : 1h 44mn\nBit rate                                 : 4 496 Kbps\nWidth                                    : 1 280 pixels\nHeight                                   : 544 pixels\nDisplay aspect ratio                     : 2.35:1\nFrame rate                               : 23.976 fps\nColor space                              : YUV\nChroma subsampling                       : 4:2:0\nBit depth                                : 8 bits\nScan type                                : Progressive\nBits/(Pixel*Frame)                       : 0.269\nStream size                              : 3.19 GiB (73%)\nWriting library                          : x264 core 119 r2106 \n\nAudio\nID                                       : 2\nFormat                                   : DTS\nFormat/Info                              : Digital Theater Systems\nMuxing mode                              : Header stripping\nCodec ID                                 : A_DTS\nDuration                                 : 1h 44mn\nBit rate mode                            : Constant\nBit rate                                 : 1 510 Kbps\nChannel(s)                               : 6 channels\nChannel positions                        : Front: L C R, Side: L R, LFE\nSampling rate                            : 48.0 KHz\nBit depth                                : 24 bits\nCompression mode                         : Lossy\nDelay relative to video                  : 16ms\nStream size                              : 1.10 GiB (25%)","torrent":{"xt":"urn:btih:a3a026096d5d6ef0cbc10d5ea5d90f8d495dbab4","amp;dn":"Snow.Flower.and.the.Secret.Fan.LIMITED.BluRay.720p.x264.DTS-DOC","amp;tr":["udp%3A%2F%2Ftracker.openbittorrent.com%3A80","udp%3A%2F%2Fopen.demonii.com%3A1337","udp%3A%2F%2Ftracker.coppersurfer.tk%3A6969","udp%3A%2F%2Fexodus.desync.com%3A6969"],"infoHash":"a3a026096d5d6ef0cbc10d5ea5d90f8d495dbab4","infoHashBuffer":{"type":"Buffer","data":[163,160,38,9,109,93,110,240,203,193,13,94,165,217,15,141,73,93,186,180]},"announce":[],"urlList":[]}}